<svg xmlns="http://www.w3.org/2000/svg" width="23" height="23" viewBox="0 0 23 23">
  <g id="ic_filter_collapse" transform="translate(569 118) rotate(180)">
    <rect id="Rectangle_3919" data-name="Rectangle 3919" width="23" height="23" transform="translate(546 95)" fill="#fff" opacity="0"/>
    <path id="Path_6322" data-name="Path 6322" d="M10.756-1.414a1.487,1.487,0,0,0,.6-.127,1.692,1.692,0,0,0,.524-.384l6.883-7.031a1.315,1.315,0,0,0,.4-.959,1.356,1.356,0,0,0-.187-.706,1.429,1.429,0,0,0-.5-.5,1.326,1.326,0,0,0-.7-.187,1.391,1.391,0,0,0-1.014.44L10.367-4.282h.792L4.75-10.871a1.4,1.4,0,0,0-1.013-.44,1.326,1.326,0,0,0-.7.187,1.429,1.429,0,0,0-.5.5,1.356,1.356,0,0,0-.187.706,1.311,1.311,0,0,0,.1.519,1.46,1.46,0,0,0,.294.44L9.631-1.92A1.563,1.563,0,0,0,10.756-1.414Z" transform="translate(546.746 112.863)"/>
  </g>
</svg>
