<svg xmlns="http://www.w3.org/2000/svg" width="20" height="20" viewBox="0 0 20 20">
  <path id="ic_search" d="M2.448-10.069a7.89,7.89,0,0,0,.636,3.158,8.179,8.179,0,0,0,1.767,2.6A8.27,8.27,0,0,0,7.468-2.564a8.064,8.064,0,0,0,3.183.63,7.938,7.938,0,0,0,2.477-.382,8.284,8.284,0,0,0,2.161-1.067l4.837,4.8a1.221,1.221,0,0,0,.453.286,1.557,1.557,0,0,0,.527.092,1.347,1.347,0,0,0,.694-.177,1.287,1.287,0,0,0,.475-.481,1.37,1.37,0,0,0,.174-.692,1.363,1.363,0,0,0-.382-.95l-4.8-4.776A8.05,8.05,0,0,0,18.441-7.5a7.778,7.778,0,0,0,.423-2.567,7.885,7.885,0,0,0-.637-3.158,8.129,8.129,0,0,0-1.768-2.592,8.378,8.378,0,0,0-2.616-1.751,8.034,8.034,0,0,0-3.192-.635,8.012,8.012,0,0,0-3.183.635,8.378,8.378,0,0,0-2.616,1.751,8.122,8.122,0,0,0-1.767,2.592A7.89,7.89,0,0,0,2.448-10.069Zm1.957,0a6,6,0,0,1,.485-2.4,6.184,6.184,0,0,1,1.348-1.972,6.357,6.357,0,0,1,1.99-1.33,6.123,6.123,0,0,1,2.423-.48,6.155,6.155,0,0,1,2.427.48,6.283,6.283,0,0,1,1.99,1.33,6.225,6.225,0,0,1,1.343,1.972,6,6,0,0,1,.485,2.4,6,6,0,0,1-.485,2.4,6.218,6.218,0,0,1-1.343,1.972,6.293,6.293,0,0,1-1.99,1.33,6.151,6.151,0,0,1-2.427.48,6.118,6.118,0,0,1-2.423-.48,6.366,6.366,0,0,1-1.99-1.33A6.178,6.178,0,0,1,4.89-7.665,6,6,0,0,1,4.405-10.069Z" transform="translate(-2.448 18.205)" fill="#23272b"/>
</svg>
